/* XPM */
static char *_178_ab80c96d6191d7e8fe377c501d8d6510e4954c807b07b70e29a28ee0d57c163f[] = {
/* columns rows colors chars-per-pixel */
"16 16 26 1 ",
"  c #5DC46E",
". c #67C877",
"X c #6AC97A",
"o c #6FCB7E",
"O c #71CB80",
"+ c #7BCF89",
"@ c #84D290",
"# c #85D392",
"$ c #90D69B",
"% c #9ADAA4",
"& c #A2DDAC",
"* c #A4DEAD",
"= c #A9E0B2",
"- c #AEE1B6",
"; c #B8E5C0",
": c #C2E9C9",
"> c #C3E9C9",
", c #CCEDD2",
"< c #CDEDD2",
"1 c #D6F0DB",
"2 c #E1F4E4",
"3 c #EBF8ED",
"4 c #F0F9F1",
"5 c #F5FBF6",
"6 c white",
"7 c None",
/* pixels */
"777777    777777",
"7777        7777",
"77         O:X77",
"77         <$ 77",
"7    #;>+ *;   7",
"7   *5-6;.3.   7",
"   +5*-6#--     ",
"   11 32 2.     ",
"  .6&+6-@,      ",
"   **%6$-$      ",
"     *6O,O     7",
"7    -6o1      7",
"77   #6=2     77",
"77    ;4-     77",
"7777        7777",
"777777    777777"
};
