/* XPM */
static char *_767_66ca75f6d2491c1e74fd3b5d6965126dc5ae2ca3a495bda50e90e2e3ba2e16e1[] = {
/* columns rows colors chars-per-pixel */
"64 64 103 2 ",
"   c #5DC46E",
".  c #5EC46F",
"X  c #61C571",
"o  c #61C572",
"O  c #63C673",
"+  c #63C674",
"@  c #64C674",
"#  c #64C775",
"$  c #66C776",
"%  c #67C777",
"&  c #67C877",
"*  c #6CC97C",
"=  c #6DC97C",
"-  c #6DCA7C",
";  c #70CB7F",
":  c #71CB80",
">  c #72CC81",
",  c #74CC83",
"<  c #75CC83",
"1  c #75CD84",
"2  c #78CE86",
"3  c #7BCF89",
"4  c #7DD08B",
"5  c #7ED08C",
"6  c #82D18F",
"7  c #85D392",
"8  c #87D393",
"9  c #8BD597",
"0  c #8DD599",
"q  c #8FD69A",
"w  c #8FD69B",
"e  c #90D69B",
"r  c #95D8A0",
"t  c #96D9A1",
"y  c #98D9A3",
"u  c #9ADAA4",
"i  c #9ADAA5",
"p  c #9BDAA5",
"a  c #9CDBA6",
"s  c #A0DCAA",
"d  c #A1DDAB",
"f  c #A3DDAD",
"g  c #A4DEAD",
"h  c #A4DEAE",
"j  c #A5DEAE",
"k  c #A5DEAF",
"l  c #A7DFB0",
"z  c #A8DFB1",
"x  c #ACE1B5",
"c  c #AEE1B6",
"v  c #AEE2B7",
"b  c #B0E2B8",
"n  c #B1E2B9",
"m  c #B1E3BA",
"M  c #B3E3BB",
"N  c #B5E4BD",
"B  c #B7E5BF",
"V  c #B8E5BF",
"C  c #B8E5C0",
"Z  c #BAE6C2",
"A  c #BBE6C2",
"S  c #BDE7C4",
"D  c #BEE7C5",
"F  c #C0E8C7",
"G  c #C1E8C7",
"H  c #C2E9C9",
"J  c #C4E9CA",
"K  c #C6EACC",
"L  c #C7EACD",
"P  c #C8EBCE",
"I  c #C9EBCF",
"U  c #CAECD0",
"Y  c #CBECD0",
"T  c #CCECD1",
"R  c #CCECD2",
"E  c #CDECD2",
"W  c #CCEDD2",
"Q  c #D0EED5",
"!  c #D1EED6",
"~  c #D4EFD8",
"^  c #D6F0DB",
"/  c #DBF2DF",
"(  c #DCF2E0",
")  c #DDF2E0",
"_  c #DEF3E1",
"`  c #E0F3E3",
"'  c #E1F4E4",
"]  c #E2F4E5",
"[  c #E5F5E8",
"{  c #E6F6E8",
"}  c #EBF8ED",
"|  c #EDF8EE",
" . c #EFF9F0",
".. c #F1FAF2",
"X. c #F2FAF3",
"o. c #F5FBF6",
"O. c #F9FDFA",
"+. c #FAFDFA",
"@. c #FCFEFC",
"#. c #FDFEFD",
"$. c #FEFFFE",
"%. c white",
"&. c None",
/* pixels */
"&.&.&.&.&.&.&.&.&.&.&.&.&.&.&.&.&.&.&.&.&.&.&.&.&.&.&.&.&.&.&.&.&.&.&.&.&.&.&.&.&.&.&.&.&.&.&.&.&.&.&.&.&.&.&.&.&.&.&.&.&.&.&.&.",
"&.&.&.&.&.&.&.&.&.&.&.&.&.&.&.&.&.&.&.&.&.&.&.&.                                &.&.&.&.&.&.&.&.&.&.&.&.&.&.&.&.&.&.&.&.&.&.&.&.",
"&.&.&.&.&.&.&.&.&.&.&.&.&.&.&.&.&.&.&.&.&.                                            &.&.&.&.&.&.&.&.&.&.&.&.&.&.&.&.&.&.&.&.&.",
"&.&.&.&.&.&.&.&.&.&.&.&.&.&.&.&.&.&.&.                                                      &.&.&.&.&.&.&.&.&.&.&.&.&.&.&.&.&.&.",
"&.&.&.&.&.&.&.&.&.&.&.&.&.&.&.&.&.                                                              &.&.&.&.&.&.&.&.&.&.&.&.&.&.&.&.",
"&.&.&.&.&.&.&.&.&.&.&.&.&.&.&.                                                                    &.&.&.&.&.&.&.&.&.&.&.&.&.&.&.",
"&.&.&.&.&.&.&.&.&.&.&.&.&.                                                                            &.&.&.&.&.&.&.&.&.&.&.&.&.",
"&.&.&.&.&.&.&.&.&.&.&.&.                                                                                &.&.&.&.&.&.&.&.&.&.&.&.",
"&.&.&.&.&.&.&.&.&.&.&.                                                                            @ o     &.&.&.&.&.&.&.&.&.&.&.",
"&.&.&.&.&.&.&.&.&.&.                                                                            g o.%.X.e   &.&.&.&.&.&.&.&.&.&.",
"&.&.&.&.&.&.&.&.&.                                                                            p O.%.%.o.w     &.&.&.&.&.&.&.&.&.",
"&.&.&.&.&.&.&.&.                                                                            3 o.%.%.o.e         &.&.&.&.&.&.&.&.",
"&.&.&.&.&.&.&.                                                                            & ' %.%.%.g             &.&.&.&.&.&.&.",
"&.&.&.&.&.&.&.                                                                            P %.%.%.C                 &.&.&.&.&.&.",
"&.&.&.&.&.&.                                                                            i %.%.%.' &                 &.&.&.&.&.&.",
"&.&.&.&.&.                                                                            - o.%.%.o.6                     &.&.&.&.&.",
"&.&.&.&.&.                                                                            J %.%.%.c                       &.&.&.&.&.",
"&.&.&.&.                                        & 7 g C C F m 9                     e %.%.%./ &                         &.&.&.&.",
"&.&.&.&.                                    7 E o.%.%.%.%.%.%.%.{ 6               & ' %.%.o.7                             &.&.&.",
"&.&.&.                                  & C o.%.%.%.%.%.%.%.%.%.%.o.=             c %.%.%.b                               &.&.&.",
"&.&.&.                                & T %.%.%.%.%.#.^ ) %.%.%.%.%.7           : o.%.%.[ &                               &.&.&.",
"&.&.                                & W %.%.%.%.%.o.e   Q %.%.%.%.%.e           D %.%.%.8                                   &.&.",
"&.&.                              & W %.%.%.%.%.o.e   3 %.%.%.%.%.%.:         1 o.%.%.T                                     &.&.",
"&.&.                            & W %.%.%.%.%.o.q     D %.%.%.%.%.'           H %.%.o.3                                     &.&.",
"&.                              C %.%.%.%.%.o.e     & o.%.%.%.%.%.c         , o.%.%.N                                         &.",
"&.                            a %.%.%.%.%.o.e       c %.%.%.%.%.o.:         V %.%.o.:                                         &.",
"&.                          : o.%.%.%.%.%.h       & } %.%.%.%.%.n         & o.%.%.n                                           &.",
"&.                          W %.%.%.%.%.G         l %.%.%.%.%.@.>         c %.%.+.<                                           &.",
"&.                        e %.%.%.%.%.} &       . ] %.%.%.%.%.W         % } %.%.W                                             &.",
"&.                      & ' %.%.%.%.%.u         e %.%.%.%.%.%.t         e %.%.%.e                                             &.",
"&.                      d %.%.%.%.%.' $         R %.%.%.%.%.O.:         W %.%.| &                                               ",
"&.                      ` %.%.%.%.%.x         & o.%.%.%.%.%.!         * o.%.%.c                                                 ",
"&.                    3 %.%.%.%.%.o.&         e %.%.%.%.%.%.x         j %.%.%.4                                                 ",
"&.                    y %.%.%.%.%.L           T %.%.%.%.%.%.:         ~ %.%.'                                                   ",
"&.                    i %.%.%.%.%.C           } %.%.%.%.%.'         < %.%.%.v                                                   ",
"&.                    w %.%.%.%.%.T         2 %.%.%.%.%.%.c         f %.%.%.7                                                 &.",
"&.                      ' %.%.%.%.o.        w %.%.%.%.%.%.:         W %.%.'                                                   &.",
"&.                      & H %.%.%.%.T       g %.%.%.%.%.%.X       & o.%.%.S                                                   &.",
"&.                          > z ' %.W       H %.%.%.%.%.}         e %.%.%.e                                                   &.",
"&.                                          W %.%.%.%.%._         M %.%.%.:                                                   &.",
"&.&.                                        ^ %.%.%.%.%.I         ( %.%.'                                                   &.&.",
"&.&.                                        } %.%.%.%.%.Z       & O.%.%.K                                                   &.&.",
"&.&.                                        } %.%.%.%.%.B       5 %.%.%.r                                                   &.&.",
"&.&.&.                                      $.%.%.%.%.%.i       u %.%.%.:                                                 &.&.&.",
"&.&.&.                                    O %.%.%.%.%.%.u       C %.%. .                                                  &.&.&.",
"&.&.&.                                      +.%.%.%.%.%.s       W %.%.'                                                   &.&.&.",
"&.&.&.&.                                    } %.%.%.%.%.g       } %.%.^                                                 &.&.&.&.",
"&.&.&.&.&.                                  H %.%.%.%.%.W     : %.%.%.A                                                 &.&.&.&.",
"&.&.&.&.&.                                  t %.%.%.%.%.o.    7 %.%.%.u                                               &.&.&.&.&.",
"&.&.&.&.&.&.                                & %.%.%.%.%.%.;   a %.%.%.0                                             &.&.&.&.&.&.",
"&.&.&.&.&.&.                                  ( %.%.%.%.%.u   k %.%.@.*                                             &.&.&.&.&.&.",
"&.&.&.&.&.&.&.                                u %.%.%.%.%.U   H %.%.'                                             &.&.&.&.&.&.&.",
"&.&.&.&.&.&.&.&.                                ' %.%.%.%.%.3 W %.%.H                                           &.&.&.&.&.&.&.&.",
"&.&.&.&.&.&.&.&.&.                              & ..%.%.%.%.o.o.%.%.c                                         &.&.&.&.&.&.&.&.&.",
"&.&.&.&.&.&.&.&.&.&.                              & H %.%.%.%.%.o.~ &                                       &.&.&.&.&.&.&.&.&.&.",
"&.&.&.&.&.&.&.&.&.&.&.                                7 Y %.%.o.c                                         &.&.&.&.&.&.&.&.&.&.&.",
"&.&.&.&.&.&.&.&.&.&.&.&.                                    + #                                         &.&.&.&.&.&.&.&.&.&.&.&.",
"&.&.&.&.&.&.&.&.&.&.&.&.&.                                                                            &.&.&.&.&.&.&.&.&.&.&.&.&.",
"&.&.&.&.&.&.&.&.&.&.&.&.&.&.&.                                                                    &.&.&.&.&.&.&.&.&.&.&.&.&.&.&.",
"&.&.&.&.&.&.&.&.&.&.&.&.&.&.&.&.                                                                &.&.&.&.&.&.&.&.&.&.&.&.&.&.&.&.",
"&.&.&.&.&.&.&.&.&.&.&.&.&.&.&.&.&.&.                                                        &.&.&.&.&.&.&.&.&.&.&.&.&.&.&.&.&.&.",
"&.&.&.&.&.&.&.&.&.&.&.&.&.&.&.&.&.&.&.&.&.                                            &.&.&.&.&.&.&.&.&.&.&.&.&.&.&.&.&.&.&.&.&.",
"&.&.&.&.&.&.&.&.&.&.&.&.&.&.&.&.&.&.&.&.&.&.&.&.                                &.&.&.&.&.&.&.&.&.&.&.&.&.&.&.&.&.&.&.&.&.&.&.&.",
"&.&.&.&.&.&.&.&.&.&.&.&.&.&.&.&.&.&.&.&.&.&.&.&.&.&.&.&.&.            &.&.&.&.&.&.&.&.&.&.&.&.&.&.&.&.&.&.&.&.&.&.&.&.&.&.&.&.&."
};
