/* XPM */
static char *_2265_46dca95bc1a3d18357f47a60bddefd18d27fcbe29c6f53cc4ab27af435a0eac3[] = {
/* columns rows colors chars-per-pixel */
"32 32 48 1 ",
"  c #5DC46E",
". c #62C672",
"X c #67C877",
"o c #69C979",
"O c #6AC879",
"+ c #71CB80",
"@ c #79CE87",
"# c #7ACF88",
"$ c #7BCF89",
"% c #7ED08B",
"& c #82D18F",
"* c #85D392",
"= c #86D393",
"- c #89D495",
"; c #8FD69B",
": c #90D69B",
"> c #96D8A1",
", c #9ADAA4",
"< c #A4DEAD",
"1 c #A7DFB0",
"2 c #AEE1B6",
"3 c #B8E5C0",
"4 c #BFE7C5",
"5 c #C0E8C6",
"6 c #C2E9C9",
"7 c #C9EBCE",
"8 c #CBECD0",
"9 c #CCEDD2",
"0 c #D5EFD9",
"q c #D6F0DB",
"w c #D7F0DB",
"e c #DBF2DE",
"r c #DCF2E0",
"t c #DDF3E1",
"y c #DFF3E2",
"u c #E1F4E4",
"i c #E5F5E7",
"p c #EAF7EC",
"a c #EBF8ED",
"s c #EEF9F0",
"d c #F5FBF6",
"f c #F9FDFA",
"g c #FBFDFC",
"h c #FCFEFC",
"j c #FDFEFD",
"k c #FEFFFE",
"l c white",
"z c None",
/* pixels */
"zzzzzzzzzzzzzz     zzzzzzzzzzzzz",
"zzzzzzzzzz            zzzzzzzzzz",
"zzzzzzzz                zzzzzzzz",
"zzzzzz                    zzzzzz",
"zzzzz                   :2ozzzzz",
"zzzz                   <luX zzzz",
"zzz                   $da+   zzz",
"zzz                  Xtl:    zzz",
"zz          X&:*     2l3      zz",
"zz        $0dlllu   +daX      zz",
"z        $dld1sll+  6l;        z",
"z       $dld,%lldX *l9         z",
"z      Oall, 6ll9  8l$         z",
"       9ll3 +dll$ @k9           ",
"      :llwX 2llr  2l*           ",
"      ell:  all2 Xau            ",
"     #lli. -lll+ :l2            ",
"     Xlly  1llu  9l$            ",
"      5lg$ 9ll3  au             ",
"z      $2$ pll, $l4            z",
"z          all: <l>            z",
"z          lll* 9l+            z",
"zz         lll$ aa            zz",
"zz         all* hu            zz",
"zzz        3ll<$l6           zzz",
"zzz        =llq*l2           zzz",
"zzzz        qll7l:          zzzz",
"zzzzz        <jf2X         zzzzz",
"zzzzzz                    zzzzzz",
"zzzzzzzz                zzzzzzzz",
"zzzzzzzzzz            zzzzzzzzzz",
"zzzzzzzzzzzzz      zzzzzzzzzzzzz"
};
